<?xml version="1.0" encoding="utf-8"?>
<svg width="295px" height="100px" viewBox="0 0 295 100" version="1.1" xmlns:xlink="http://www.w3.org/1999/xlink" xmlns="http://www.w3.org/2000/svg">
  <desc>Created with Lunacy</desc>
  <defs>
    <path d="M0 0L294.01 0L294.01 100L0 100L0 0Z" id="path_1" />
    <clipPath id="mask_1">
      <use xlink:href="#path_1" />
    </clipPath>
  </defs>
  <g id="Discord">
    <g id="Discord-Logo+Wordmark-Color">
      <path d="M0 0L294.01 0L294.01 100L0 100L0 0Z" id="Background" fill="none" stroke="none" />
      <g clip-path="url(#mask_1)">
        <path d="M0 4.04263C0 1.80081 1.6538 0 3.74862 0C5.84344 2.80389e-06 7.53399 1.80081 7.49724 4.04263C7.49724 6.28445 5.84344 8.08526 3.74862 8.08526C1.69055 8.08526 0 6.28445 0 4.04263ZM13.4142 4.04263C13.4142 1.80081 15.068 0 17.1628 0C19.2209 2.80389e-06 20.9114 1.80081 20.9114 4.04263C20.9114 6.28445 19.2576 8.08526 17.1628 8.08526C15.1047 8.08526 13.4142 6.28445 13.4142 4.04263Z" transform="translate(35.31787 44.138184)" id="Shape" fill="#7289DA" fill-rule="evenodd" stroke="none" />
        <path d="M7.53399 0L56.7806 0C60.9335 0 64.3146 3.38111 64.3513 7.53399L64.3513 72.8776L56.4131 66.0051L51.9662 61.9258L47.262 57.5891L49.2098 64.3146L7.53399 64.3146C3.38111 64.3146 0 60.9335 0 56.7806L0 7.53399C0 3.38111 3.38111 0 7.53399 0ZM135.465 24.917C135.575 26.4973 137.266 27.4161 139.801 27.9674C145.608 29.0332 151.415 31.0545 151.047 39.0295C150.79 45.3507 144.138 48.8053 138.148 48.8053C134.252 48.8053 130.099 46.8207 127.049 42.8884L132.268 38.0004C135.538 41.9696 142.742 42.1533 142.962 38.662C143.036 36.8244 140.059 35.7586 137.376 35.3911C132.12 34.5826 127.343 31.2382 127.343 25.0273C127.343 18.6326 133.15 15.2515 139.14 15.2515C143.072 15.2515 146.894 16.354 150.276 20.4701L144.873 24.623C141.455 20.9847 135.612 21.1317 135.465 24.917ZM162.036 37.67L162.036 26.4242C162.036 22.3816 169.313 21.4628 171.518 25.5054L178.243 22.7858C175.597 16.9791 170.783 15.2886 166.777 15.2886C160.235 15.2886 153.767 19.0739 153.767 26.4242L153.767 37.67C153.767 45.0938 160.235 48.8057 166.63 48.8057C170.746 48.8057 175.671 46.7843 178.39 41.4922L171.187 38.1846C169.423 42.705 162.036 41.6024 162.036 37.67ZM194.12 15.2886C187.358 15.2886 180.632 18.9637 180.632 26.4977L180.632 37.6333C180.632 45.0938 187.394 48.8424 194.193 48.8424C200.956 48.8424 207.681 45.0938 207.681 37.6333L207.681 26.4977C207.681 19.0004 200.882 15.2886 194.12 15.2886ZM85.8876 15.7295L98.089 15.7295C104.631 15.7295 110.768 19.0739 110.731 26.7181L110.731 37.67C110.731 45.1672 104.594 48.4381 98.0522 48.4013L85.8508 48.4013L85.8508 40.6468L98.3462 40.6468C101.176 40.6468 102.462 39.2135 102.462 37.0819L102.462 26.9019C102.462 24.7703 101.103 23.4472 98.3462 23.4472L94.0096 23.4472L94.0096 36.7512L85.8876 29.4377L85.8876 15.7295ZM115.178 48.3645L123.41 48.3645L123.41 15.7295L115.178 15.7295L115.178 48.3645ZM241.786 15.7295L253.987 15.7295C260.529 15.7295 266.667 19.0739 266.667 26.7181L266.667 37.67C266.667 45.1672 260.529 48.4381 253.987 48.4013L241.749 48.4013L241.749 40.6468L254.245 40.6468C257.075 40.6468 258.361 39.2135 258.361 37.0819L258.361 26.9019C258.361 24.7703 257.001 23.4472 254.245 23.4472L249.908 23.4472L249.908 36.7512L241.786 29.4377L241.786 15.7295ZM237.229 26.4975C237.045 18.8532 231.827 15.7661 225.101 15.7661L212.054 15.7661L212.054 48.4012L220.397 48.4012L220.397 38.0373L221.867 38.0373L229.438 48.4012L239.728 48.4012L230.834 37.1921C234.767 35.9425 237.229 32.5247 237.229 26.4975ZM42.5947 47.5929C42.5947 47.5929 41.2716 46.0126 40.1691 44.6528C44.9835 43.293 46.8211 40.3162 46.8211 40.3162C45.3143 41.3085 43.881 42.0068 42.5947 42.4845C40.7571 43.2563 38.9931 43.7341 37.2658 44.0648C33.7377 44.7263 30.5035 44.5426 27.7472 44.0281C25.6524 43.6238 23.8516 43.0725 22.3448 42.4478C21.4995 42.117 20.5807 41.7127 19.6619 41.1982C19.5517 41.1247 19.4414 41.088 19.3312 41.0145C19.2577 40.9777 19.2209 40.941 19.1842 40.941C18.5227 40.5735 18.1551 40.3162 18.1551 40.3162C18.1551 40.3162 19.9192 43.2195 24.5866 44.6161C23.4841 46.0126 22.1243 47.6297 22.1243 47.6297C14.0023 47.3724 10.9152 42.0803 10.9152 42.0803C10.9152 30.3566 16.2073 20.8381 16.2073 20.8381C21.4995 16.9057 26.4977 17.0159 26.4977 17.0159L26.8652 17.4569C20.25 19.3313 17.2364 22.2346 17.2364 22.2346C17.2364 22.2346 18.0449 21.7936 19.4047 21.2056C23.3371 19.4783 26.4609 19.0372 27.7472 18.8902C27.9677 18.8535 28.1515 18.8167 28.372 18.8167C30.6138 18.5227 33.1496 18.4492 35.7957 18.7432C39.2871 19.1475 43.0357 20.1765 46.8578 22.2346C46.8578 22.2346 43.9545 19.4783 37.7068 17.604L38.2213 17.0159C38.2213 17.0159 43.2562 16.9057 48.5116 20.8381C48.5116 20.8381 53.8038 30.3566 53.8038 42.0803L53.8037 42.0801C53.803 42.0796 53.7944 42.0924 53.7779 42.1172C53.4651 42.5863 50.2895 47.3492 42.5947 47.5929ZM194.157 41.1984C196.766 41.1984 199.412 39.9856 199.412 37.6335L199.412 26.4979C199.412 23.962 196.692 22.8228 194.01 22.8228C191.437 22.8228 188.864 24.109 188.864 26.4979L188.864 37.6335C188.864 40.0591 191.51 41.1984 194.157 41.1984ZM220.397 30.9078L225.248 30.9078C230.43 30.9078 230.43 23.4473 225.248 23.4473L220.397 23.4473L220.397 30.9078Z" transform="translate(13.561157 13.561035)" id="Shape" fill="#7289DA" fill-rule="evenodd" stroke="none" />
      </g>
    </g>
  </g>
</svg>