<?xml version="1.0" encoding="utf-8"?>
<svg width="389px" height="100px" viewBox="0 0 389 100" version="1.1" xmlns:xlink="http://www.w3.org/1999/xlink" xmlns="http://www.w3.org/2000/svg">
  <desc>Created with Lunacy</desc>
  <defs>
    <path d="M0 0L100 0L100 100L0 100L0 0Z" id="path_1" />
    <clipPath id="mask_1">
      <use xlink:href="#path_1" />
    </clipPath>
  </defs>
  <g id="facebook">
    <g id="Facebook-icon">
      <path d="M0 0L100 0L100 100L0 100L0 0Z" id="Background" fill="none" stroke="none" />
      <g clip-path="url(#mask_1)">
        <path d="M75 64.5833C75 70.3375 70.3375 75 64.5833 75L10.4167 75C4.66458 75 0 70.3375 0 64.5833L0 10.4167C0 4.6625 4.66458 0 10.4167 0L64.5833 0C70.3375 0 75 4.6625 75 10.4167L75 64.5833L75 64.5833Z" transform="translate(12.5 12.5)" id="Shape" fill="#3F51B5" stroke="none" />
        <path d="M23.6833 25L16.6667 25L16.6667 52.0833L6.25 52.0833L6.25 25L0 25L0 16.6667L6.25 16.6667L6.25 11.6458C6.25417 4.3375 9.28958 0 17.9 0L25 0L25 8.33333L20.2354 8.33333C16.8833 8.33333 16.6667 9.58333 16.6667 11.9229L16.6667 16.6667L25 16.6667L23.6833 25L23.6833 25Z" transform="translate(47.916687 27.083496)" id="Shape" fill="#FFFFFF" stroke="none" />
      </g>
    </g>
    <g id="facebook" fill="#3F51B5" transform="translate(108 12)">
      <path d="M5.625 26.7188L0.75 26.7188L0.75 33.625L5.625 33.625L5.625 59.9063L14.4063 59.9063L14.4063 33.625L20.9688 33.625L20.9688 26.7188L14.4063 26.7188L14.4063 24.375Q14.4062 21.8438 15.2344 20.9531Q16.0625 20.0625 17.9688 20.0625Q19.9063 20.0625 22 20.5625L23.1875 14.4375Q19.5938 13.3125 15.8438 13.3125Q12.1875 13.3125 9.79688 14.6094Q7.40625 15.9063 6.51563 17.9688Q5.625 20.0313 5.625 24.2188L5.625 26.7188ZM132.313 59.9063L132.313 14.0938L141.094 14.0938L141.094 30.5938Q145.156 25.9688 150.719 25.9688Q156.781 25.9688 160.75 30.3594Q164.719 34.75 164.719 42.9688Q164.719 51.4688 160.672 56.0625Q156.625 60.6563 150.844 60.6563Q148 60.6563 145.234 59.2344Q142.469 57.8125 140.469 55.0313L140.469 59.9063L132.313 59.9063ZM249.656 14.0938L249.656 59.9063L258.438 59.9063L258.438 49.2813L262.531 45L270.875 59.9063L280.344 59.9063L268.188 38.8438L279.531 26.7188L268.719 26.7188L258.438 38.4063L258.438 14.0938L249.656 14.0938ZM24.5 35.4063L32.4688 36.8438Q33.2813 34.5313 34.5938 33.6094Q35.9063 32.6875 38.25 32.6875Q41.7188 32.6875 42.9688 33.7656Q44.2188 34.8438 44.2188 37.375L44.2188 38.25Q41.8438 39.25 35.6875 40.4063Q31.125 41.2813 28.7031 42.4531Q26.2813 43.625 24.9375 45.8281Q23.5938 48.0313 23.5938 50.8438Q23.5938 55.0938 26.5469 57.875Q29.5 60.6563 34.625 60.6563Q37.5313 60.6563 40.0938 59.5625Q42.6563 58.4688 44.9063 56.2813Q45 56.5313 45.2188 57.3125Q45.7188 59.0313 46.0625 59.9063L54.75 59.9063Q53.5938 57.5313 53.1719 55.4531Q52.75 53.375 52.75 49L52.8438 38.75Q52.8438 33.0313 51.6719 30.8906Q50.5 28.75 47.625 27.3594Q44.75 25.9688 38.875 25.9688Q32.4063 25.9688 29.125 28.2813Q25.8438 30.5938 24.5 35.4063ZM90.4375 36.5313L81.7813 38.0938Q81.3438 35.5 79.7969 34.1875Q78.25 32.875 75.7813 32.875Q72.5 32.875 70.5469 35.1406Q68.5938 37.4063 68.5938 42.7188Q68.5938 48.625 70.5781 51.0625Q72.5625 53.5 75.9063 53.5Q78.4063 53.5 80 52.0781Q81.5938 50.6563 82.25 47.1875L90.875 48.6563Q89.5313 54.5938 85.7188 57.625Q81.9063 60.6563 75.5 60.6563Q68.2188 60.6563 63.8906 56.0625Q59.5625 51.4688 59.5625 43.3438Q59.5625 35.125 63.9063 30.5469Q68.25 25.9688 75.6563 25.9688Q81.7188 25.9688 85.2969 28.5781Q88.875 31.1875 90.4375 36.5313ZM125.063 50.8125L116.313 49.3438Q115.594 51.8438 114.188 52.9688Q112.781 54.0938 110.719 54.0938Q107.688 54.0938 105.656 51.9219Q103.625 49.75 103.531 45.8438L125.531 45.8438Q125.719 35.75 121.438 30.8594Q117.156 25.9688 109.75 25.9688Q103.156 25.9688 98.8438 30.6406Q94.5313 35.3125 94.5313 43.5625Q94.5313 50.4688 97.8125 55Q101.969 60.6563 110.625 60.6563Q116.094 60.6563 119.734 58.1406Q123.375 55.625 125.063 50.8125ZM171.906 34.375Q169.75 38.4688 169.75 42.8438Q169.75 48.5625 171.906 52.5469Q174.063 56.5313 178.203 58.5938Q182.344 60.6563 186.906 60.6563Q194.281 60.6563 199.141 55.7031Q204 50.75 204 43.2188Q204 35.75 199.188 30.8594Q194.375 25.9688 186.844 25.9688Q181.969 25.9688 178.016 28.125Q174.063 30.2813 171.906 34.375ZM208.844 42.8438Q208.844 38.4688 211 34.375Q213.156 30.2813 217.109 28.125Q221.063 25.9688 225.938 25.9688Q233.469 25.9688 238.281 30.8594Q243.094 35.75 243.094 43.2188Q243.094 50.75 238.234 55.7031Q233.375 60.6563 226 60.6563Q221.438 60.6563 217.297 58.5938Q213.156 56.5313 211 52.5469Q208.844 48.5625 208.844 42.8438ZM114.844 34.6719Q116.719 36.6563 116.813 40.4688L103.688 40.4688Q103.656 36.875 105.531 34.7813Q107.406 32.6875 110.281 32.6875Q112.969 32.6875 114.844 34.6719ZM141.031 42.5938Q141.031 47.75 142.656 50.2188Q144.938 53.7188 148.719 53.7188Q151.625 53.7188 153.672 51.2344Q155.719 48.75 155.719 43.4063Q155.719 37.7188 153.656 35.2031Q151.594 32.6875 148.375 32.6875Q145.219 32.6875 143.125 35.1406Q141.031 37.5938 141.031 42.5938ZM181.094 50.875Q178.75 48.25 178.75 43.3125Q178.75 38.375 181.094 35.75Q183.438 33.125 186.875 33.125Q190.313 33.125 192.641 35.75Q194.969 38.375 194.969 43.25Q194.969 48.25 192.641 50.875Q190.313 53.5 186.875 53.5Q183.438 53.5 181.094 50.875ZM217.844 43.3125Q217.844 48.25 220.188 50.875Q222.531 53.5 225.969 53.5Q229.406 53.5 231.734 50.875Q234.063 48.25 234.063 43.25Q234.063 38.375 231.734 35.75Q229.406 33.125 225.969 33.125Q222.531 33.125 220.188 35.75Q217.844 38.375 217.844 43.3125ZM38.875 45.3125Q42.5313 44.5313 44.2188 43.9688L44.2188 45.7188Q44.2188 48.875 43.875 50Q43.375 51.7188 41.7813 52.9063Q39.625 54.4688 37.25 54.4688Q35.125 54.4688 33.75 53.125Q32.375 51.7813 32.375 49.9375Q32.375 48.0625 34.0938 46.8438Q35.2188 46.0938 38.875 45.3125Z" />
    </g>
  </g>
</svg>