<?xml version="1.0" encoding="utf-8"?>
<svg width="365px" height="107px" viewBox="0 0 365 107" version="1.1" xmlns:xlink="http://www.w3.org/1999/xlink" xmlns="http://www.w3.org/2000/svg">
  <desc>Created with Lunacy</desc>
  <defs>
    <path d="M0 0L100 0L100 100L0 100L0 0Z" id="path_1" />
    <path d="M0 0L252 0L252 90L0 90L0 0Z" id="path_2" />
    <clipPath id="mask_1">
      <use xlink:href="#path_1" />
    </clipPath>
    <clipPath id="mask_2">
      <use xlink:href="#path_2" />
    </clipPath>
  </defs>
  <g id="Instagram" transform="translate(2 2)">
    <g id="Instagram-icon" transform="translate(0 2)">
      <path d="M0 0L100 0L100 100L0 100L0 0Z" id="Background" fill="none" stroke="none" />
      <g clip-path="url(#mask_1)">
        <path d="M63.5833 15.5833C62.75 16.125 61.5625 16.625 61.0625 17.1875C60.875 17.375 60.7708 17.5833 60.8125 17.7917L60.8125 19.9375L60.1875 22.0417L59.5625 24.125L58.875 26.4167L57.4583 31.1042L56.0833 35.7292L55.0416 39.2083C55.0416 39.75 55.0208 40.2917 54.9791 40.8125C54.8333 42.8125 54.4167 44.7292 53.75 46.5208C53.3542 47.625 52.875 48.6875 52.2916 49.6875C52.0833 50.0833 51.8333 50.4792 51.5833 50.8542C50.75 52.1667 49.75 53.375 48.6458 54.4375C47.7917 55.2917 46.8542 56.0833 45.8333 56.75C45.8333 56.75 45.8333 56.75 45.8125 56.75C45.6458 56.8958 45.4583 57.0208 45.25 57.125C44.6042 57.5625 43.9167 57.9375 43.2083 58.2708C42.7292 58.5208 42.25 58.7292 41.75 58.9167C41.6458 58.9792 41.5208 59.0208 41.4167 59.0625C40.2292 59.625 38.8542 60 37.4792 60.1875C37.3958 60.2083 37.3333 60.2083 37.25 60.2292C36.4167 60.375 35.6042 60.5 34.7708 60.5625C34.3958 60.6042 34 60.625 33.625 60.625L32.1458 60.5417L25.0208 60.1667C25.0208 60.1458 25 60.1667 25 60.1667L21.4167 59.9792C21.1458 59.9792 20.8542 59.9792 20.5833 59.9583C19.4583 59.9167 18.375 59.7917 17.2917 59.5625C17.2708 59.5625 17.2708 59.5625 17.2708 59.5625C15.2917 59.1875 13.3958 58.5208 11.625 57.625C10.6458 57.125 9.6875 56.5625 8.79166 55.9167C8.41666 55.6458 8.0625 55.3542 7.70833 55.0417C6.70833 54.2083 5.8125 53.3125 4.97917 52.3958C4.85417 52.2708 4.75 52.1458 4.64583 52.0208C4.52083 51.8958 4.39583 51.75 4.29167 51.625C3.5 50.625 2.83333 49.6042 2.29167 48.5208C1.79167 47.5625 1.39583 46.5417 1.08333 45.4167C0.958333 45.0208 0.854168 44.6458 0.770835 44.2292C0.750001 44.2083 0.729167 44.1667 0.729167 44.125C0.520833 43.2708 0.333335 42.375 0.229168 41.4792C0.104167 40.7917 0.0416676 40.1042 0.0416676 39.3958C0 39.125 0 38.8333 0 38.5625L3.97917 32.4167L7.875 26.4167L9.64583 23.6875L11.25 21.2292L11.7917 20.375L11.7917 18.2292C11.8333 17.75 11.8542 17.25 11.8333 16.7917C11.8125 15.3333 11.5208 13.9167 11.0417 12.5625C10.5833 11.125 9.9375 9.77084 9.27084 8.52084C8.47917 7.08335 7.64584 5.79168 6.95834 4.62501C5.93749 2.91667 5.22916 1.52083 5.41666 0.541667C6.91666 0.1875 8.49999 0 10.1042 0L43.4375 0C52.1458 0 59.6458 5.41667 62.75 13.0417C63.0833 13.8542 63.375 14.7083 63.5833 15.5833L63.5833 15.5833Z" transform="translate(23.229248 12.5)" id="Shape" fill="#304FFE" stroke="none" />
        <path d="M72.6667 20.8333L72.6667 21.3958L69.7917 23.0625L67.9583 24.125L65.9375 25.2917L61.8958 27.6458L57.9375 29.9375L53.8958 32.2708L52.2917 33.2083C52.2917 34.2083 52.0417 35.125 51.5833 35.9583C50.9375 37.1667 49.8542 38.1667 48.4792 39.0208C47.0833 39.875 45.375 40.5625 43.4583 41.0625C43.4583 41.0625 43.4583 41.0417 43.4375 41.0625C36.0208 42.9792 25.8958 42.1042 20.9792 38.4375C19.6042 37.4167 18.6458 36.1667 18.2292 34.7292C18.1042 34.25 18.0417 33.7292 18.0417 33.2083L18.0417 18.2292C18.0625 17.9167 17.8542 17.6042 17.4792 17.2917C16.3542 16.3958 13.7083 15.5417 10.75 14.6875C8.4375 14.0417 5.95833 13.3958 3.875 12.7708C2.22917 12.2708 0.833333 11.7708 0 11.2917C0.375 10.5625 0.8125 9.83333 1.27083 9.14583C4.1875 4.875 8.64583 1.72916 13.8125 0.541663C15.3125 0.1875 16.8958 0 18.5 0L41 0C52.1875 1.95833 62.5 6.52083 71.1458 13.0417C71.4792 13.8542 71.7708 14.7083 71.9792 15.5833C72.3542 16.9583 72.5833 18.375 72.6458 19.8542C72.6667 20.1667 72.6667 20.5 72.6667 20.8333L72.6667 20.8333Z" transform="translate(14.833313 12.5)" id="Shape" fill="#4928F4" stroke="none" />
        <path d="M74.6458 17.5833L74.6458 26.7708L74.1875 28.1875L72.625 33.0417L71 38.0417L70.1458 40.7083L69.3542 43.1875L68.5833 45.5417L67.8333 47.875L67.4375 49.1042L66.9167 50.7292C66.9167 52.3125 66.875 53.7083 66.7708 54.8958C66.75 55.0208 66.7292 55.1458 66.7292 55.2708C66.6042 56.375 66.4375 57.3125 66.1667 58.1042C66.1458 58.2292 66.1042 58.3542 66.0625 58.4583C65.5208 59.9583 64.7083 60.9167 63.5 61.5417C63.2083 61.7083 62.875 61.8333 62.5208 61.9583C61.4167 62.3333 60.0208 62.5208 58.3125 62.625C57.0625 62.7083 55.625 62.7292 54 62.7292L52.5625 62.7292L50.0833 62.625L49.6458 62.6042L45.125 62.4167L40.5417 62.2292L25.4375 61.6042L21.5208 61.4375L20.9792 61.4375C19.3542 61.4167 17.9583 61.3125 16.75 61.1458C15 60.875 13.6458 60.4167 12.625 59.7292C11.1667 58.7917 10.3125 57.4167 9.8125 55.5C9.6875 55.0417 9.58334 54.5625 9.52084 54.0417C9.3125 52.8333 9.20834 51.4375 9.14583 49.875C9.14583 49.5625 9.14583 49.25 9.125 48.9167C9.10417 48.8958 9.125 48.8958 9.125 48.8958L9.125 47.6875C9.10417 47.0833 9.10417 46.4583 9.10417 45.8125L9.20833 42.4583L9.27083 40.0625L9.35417 37.2708L9.35417 36.875L9.5 31.75L9.64583 26.625L9.79167 21.8125L9.91667 17.0833L9.95833 15.8333C9.95833 15.1875 7.77083 14.8125 5.33333 14.5C3.39583 14.25 1.27083 14.0208 0 13.7292C0.104167 13.25 0.208333 12.7708 0.333333 12.3125C0.708333 10.8125 1.27083 9.39583 1.97917 8.04167C2.35417 7.3125 2.79167 6.58333 3.25 5.89583C7.75 3.91667 12.4375 2.375 17.3333 1.375C21.625 0.479167 26.1042 0 30.7292 0C46.0625 0 60.2292 5.1875 71.4375 13.9375C72.5208 14.7708 73.5833 15.6667 74.625 16.6042C74.6458 16.9167 74.6458 17.25 74.6458 17.5833L74.6458 17.5833Z" transform="translate(12.854126 15.75)" id="Shape" fill="#6200EA" stroke="none" />
        <path d="M75 18.25L75 27.7083L73.8542 29.9167L71.6667 34.1875L70.5 36.4375L69.4375 38.5L68.9792 39.3958C68.9792 40.0417 68.9792 40.6667 68.9375 41.2708C68.9375 42.1667 68.8958 43.0208 68.8333 43.8125C68.75 44.75 68.625 45.6042 68.5 46.3958C68.1875 48.0417 67.75 49.4583 67.125 50.625C67.0417 50.7708 66.9583 50.9167 66.875 51.0417C66.6458 51.4167 66.375 51.7708 66.0833 52.1042C65.7083 52.5625 65.2917 52.9583 64.8125 53.2916C64.1042 53.8333 63.2708 54.2708 62.3125 54.6042C61.125 55.0417 59.75 55.3333 58.125 55.5C57.0625 55.6042 55.8958 55.6667 54.625 55.6667L53.75 55.7083L49.4167 55.9583L49.3958 55.9583L44.7917 56.2292L40.1042 56.5L33.6458 56.875L25.7917 57.3333L24.6458 57.3958C23.5833 57.3958 22.5833 57.3333 21.625 57.2083C21.5208 57.1875 21.4375 57.1667 21.3333 57.1667C19.9167 56.9375 18.625 56.5625 17.4583 56.0417C16.0417 55.4167 14.8125 54.5833 13.7708 53.5833C12.8542 52.6875 12.0625 51.6667 11.4167 50.5208C11.2708 50.25 11.125 50 11 49.7083C10.375 48.4792 9.875 47.1042 9.5 45.6042C9.4375 45.3542 9.375 45.0833 9.33333 44.8125C9.20833 44.3333 9.10417 43.8333 9.04167 43.3125C8.8125 41.9792 8.6875 40.5625 8.625 39.0833L8.625 39.0625C8.60417 38.4583 8.58333 37.875 8.58333 37.25L7.5625 34.8125L7.41667 34.4375L7.29167 34.125L5.72917 30.3958L5.47917 29.7917L3.97917 26.1875L2.3125 22.1667C2.3125 22.1667 2.3125 22.1667 2.29167 22.1667L0.604167 18.1042L0 16.625L0 13.3125C0 12 0.125 10.7083 0.354167 9.45833C0.458334 8.97917 0.5625 8.5 0.6875 8.04167C2.45833 7.02083 4.3125 6.08333 6.20833 5.25C10.5417 3.3125 15.1875 1.875 20 0.999999C23.5833 0.354165 27.3125 0 31.0833 0C46.3125 0 60.125 5.52083 70.9167 14.5208C71.3333 14.8542 71.7292 15.1875 72.125 15.5417C73.1042 16.3958 74.0625 17.2917 75 18.25L75 18.25Z" transform="translate(12.5 20.020508)" id="Shape" fill="#673AB7" stroke="none" />
        <path d="M75 20.1667L75 30.875L73.8125 33.3542L71.5625 38.0417L71.5417 38.1042C71.5417 39 71.5 39.8125 71.4375 40.5417C71.2292 42.9375 70.6458 44.4583 69.6875 45.3958C69 46.1042 68.1458 46.5 67.0833 46.7083C67.0208 46.7292 66.9375 46.7292 66.875 46.75C66.5417 46.8125 66.1875 46.8542 65.8125 46.8542C64.5208 46.9792 63 46.8958 61.25 46.7708C61.0625 46.7708 60.8542 46.75 60.6458 46.7292C59.375 46.6458 58.0208 46.5625 56.5208 46.5C55.7083 46.4792 54.8542 46.4583 53.9792 46.4583L53.9375 46.4583L51.8333 46.625L51.8125 46.625L47.0833 46.9583L41.6875 47.375L40.8958 47.4375L34.5833 47.8958L31.3125 48.1458L28.0833 48.375C27.5208 48.375 26.9792 48.375 26.4375 48.3542C26.4375 48.3542 26.4167 48.3333 26.4167 48.3542C24.0625 48.3125 21.9583 48.1667 20.0833 47.8125C18.3542 47.5208 16.8333 47.0625 15.5417 46.375C14.2083 45.7292 13.1042 44.8125 12.2083 43.6458C11.3542 42.5 10.7292 41.0625 10.3333 39.3333C10.3333 39.3125 10.3333 39.3125 10.3333 39.3125C10.0417 37.9167 9.87501 36.2917 9.87501 34.4583L9.56251 33.8958L7.70833 30.5833L7.4375 30.125L7.29167 29.8333L5.35417 26.3958L4.39583 24.6667L3.1875 22.5208L1.10417 18.7917L0 16.8333L0 9.16667C1.83333 7.95833 3.72917 6.89583 5.6875 5.9375C8.0625 4.72917 10.5208 3.70833 13.0833 2.875C15.875 1.95833 18.7917 1.22917 21.7708 0.749999C24.7917 0.25 27.8958 0 31.0833 0C45.25 0 58.25 5.0625 68.2708 13.4792C68.7292 13.8333 69.1667 14.2292 69.6042 14.6042C71.3542 16.1667 73.0208 17.8542 74.5417 19.625C74.7083 19.8125 74.875 19.9792 75 20.1667L75 20.1667Z" transform="translate(12.5 24.3125)" id="Shape" fill="#8E24AA" stroke="none" />
        <path d="M75 22.8958L75 37.9583C74.5 37.6667 73.8125 37.3125 72.9583 36.9375C72.5 36.7083 71.9792 36.4792 71.4375 36.2708C70.6458 35.9167 69.7917 35.5833 68.8333 35.25C68.625 35.1667 68.4167 35.1042 68.1875 35.0417C67.8125 34.8958 67.4167 34.7708 67.0208 34.6458C65.7917 34.2708 64.4375 33.9167 63.0208 33.6042C62.4792 33.5 61.9167 33.3958 61.3542 33.3125C59.5417 33 57.6042 32.8125 55.5833 32.7917C55.4167 32.7708 55.2292 32.7708 55.0625 32.7708L49.7083 32.8125L42.4167 32.8542L42.3958 32.8542L26.7917 32.9792C21.8333 32.9792 18.7917 34.1667 16.9583 34.6458C16.9583 34.6458 16.9375 34.6458 16.9375 34.6667C15 35.1667 14.3958 34.8542 14.2292 31.4583C14.1875 30.5208 14.1667 29.3125 14.1667 27.8333L13 26.9375L10.9583 25.3958L9.70833 24.4375L9.45833 24.25L6 21.625L5.47917 21.2292L4.39583 20.3958L2.39583 18.8958L0 17.0625L0 9.97917C0.208333 9.8125 0.395833 9.66667 0.604167 9.54167C3.625 7.45833 6.85417 5.6875 10.2708 4.25C13.3125 2.95833 16.5208 1.9375 19.8125 1.20833C20.7083 1.02083 21.625 0.833333 22.5625 0.708334C25.3333 0.229168 28.1875 0 31.0833 0C43.6042 0 55.1042 4.35417 64.2292 11.5625C65.6042 12.6458 66.9375 13.7917 68.1875 15.0208C69.8958 16.6458 71.5 18.375 72.9792 20.2083C73.2708 20.5833 73.5625 20.9583 73.8542 21.3542C74.25 21.8542 74.625 22.375 75 22.8958L75 22.8958Z" transform="translate(12.5 28.583008)" id="Shape" fill="#C2185B" stroke="none" />
        <path d="M75 26.9583L75 33.7917C75 35.1458 74.875 36.4792 74.625 37.7708C74.25 39.6875 73.6042 41.5208 72.7292 43.2292C72.2708 43.3333 71.75 43.3333 71.1667 43.25C69.8542 43.0208 68.3125 42.3333 66.6458 41.4375C66.5625 41.4167 66.4792 41.375 66.4167 41.3333C65.8958 41.0625 65.3542 40.7708 64.8125 40.4375C63.7083 39.8333 62.5417 39.1667 61.375 38.5417C61.125 38.4167 60.875 38.2917 60.6458 38.1667C59.3125 37.4792 57.9375 36.8542 56.5625 36.375C56.5625 36.375 56.5625 36.375 56.5417 36.375C56.25 36.2708 55.9375 36.1667 55.625 36.0833C54.4375 35.75 53.2292 35.5417 52.0625 35.5417L49.7708 34.875L39.625 31.9375C39.625 31.9375 39.625 31.9375 39.6042 31.9375L33.375 30.125L33.3542 30.125L30.6458 29.3333C22.8125 29.3333 18 32.6667 15.6667 31.3958C14.75 30.9167 14.2083 29.7083 14.0208 27.3333C13.9583 26.6667 13.9375 25.9167 13.9375 25.0417L11.5 23.8542L11.3958 23.8125L11.375 23.8125L9.625 22.9375L7.70833 22.0208L7.5625 21.9583L7.20833 21.7708L3.125 19.7917L0 18.2708L0 11.125C0.354167 10.8125 0.729167 10.5208 1.10417 10.2292C1.5 9.91667 1.89583 9.625 2.29167 9.3125C2.3125 9.3125 2.3125 9.3125 2.3125 9.3125C4.77083 7.54166 7.375 5.97916 10.1458 4.6875C13.375 3.14583 16.8125 1.95833 20.375 1.1875C20.8958 1.0625 21.4375 0.937497 21.9792 0.854166C24.9375 0.291665 27.9792 0 31.0833 0C42.0625 0 52.1458 3.5625 60.2708 9.5625C62.625 11.3125 64.8125 13.25 66.8125 15.3542C68.4583 17.0833 69.9792 18.9583 71.3542 20.9167C71.4583 21.0625 71.5625 21.2083 71.6667 21.3333C72.4375 22.4583 73.1458 23.6042 73.8125 24.7917C74.25 25.5 74.625 26.2292 75 26.9583L75 26.9583Z" transform="translate(12.5 32.875)" id="Shape" fill="#D81B60" stroke="none" />
        <path d="M74.625 33.5C74.25 35.4167 73.6042 37.25 72.7292 38.9583C72.3333 39.7292 71.8958 40.4583 71.4167 41.1667C71.125 41.6042 70.8125 42.0208 70.5 42.4167C69.75 42.125 68.6458 41.7083 67.2917 41.25C67.2917 41.25 67.2917 41.25 67.2917 41.2292C66.2708 40.875 65.1042 40.5 63.8542 40.1458C63.5 40.0417 63.1458 39.9375 62.7708 39.8333C61.2917 39.4375 59.75 39.0833 58.25 38.875C57 38.6667 55.7708 38.5417 54.625 38.5417L53.6667 38.2708L53.6458 38.2708L48.6042 36.8125L45.5 35.9167L42.0417 34.9167L42.0208 34.9167L40.8958 34.6042L27.2917 30.6875L23.375 29.5625L20.4583 28.875L15.7083 27.75L15.125 27.6042C15.125 27.6042 15.125 27.6042 15.1042 27.6042L10.3333 26.5C10.3333 26.4792 10.3333 26.4792 10.3333 26.4792L9.47916 26.2917L9.04166 26.1875L5.5625 25.375L5.16666 25.2708L2.20833 22.8333L0 20.9792L0 12.4792C0.770833 11.7292 1.5625 11.0208 2.39583 10.3333C2.64583 10.1042 2.91667 9.89583 3.1875 9.6875C3.4375 9.47917 3.70833 9.27083 3.97917 9.0625C5.875 7.625 7.875 6.33334 10 5.22917C12.7083 3.77083 15.5833 2.60417 18.6042 1.77083C19.1875 1.58333 19.7708 1.41667 20.375 1.29167C23.7917 0.437502 27.375 0 31.0833 0C40.3958 0 49.0625 2.8125 56.2292 7.625C59.7917 10.0208 63 12.8958 65.7083 16.1667C67.0833 17.8125 68.3333 19.5417 69.4375 21.375C69.5417 21.5208 69.625 21.6458 69.7083 21.7917C70.375 22.8958 71 24.0417 71.5625 25.2083C72.0833 26.25 72.5417 27.2917 72.9583 28.375C73.625 30.0417 74.1667 31.75 74.625 33.5L74.625 33.5Z" transform="translate(12.5 37.145508)" id="Shape" fill="#F50057" stroke="none" />
        <path d="M71.4167 36.875C71.125 37.3125 70.8125 37.7292 70.5 38.125C69.5833 39.2708 68.5833 40.3125 67.4583 41.2292C66.4792 42.0417 65.4375 42.7708 64.3333 43.3958C63.9167 43.2917 63.5 43.1667 63.0625 43C61.6875 42.5208 60.25 41.7292 58.9167 40.8958C56.9167 39.625 55.1875 38.25 54.4167 37.625C54.125 37.375 53.9792 37.25 53.9792 37.25L50.4375 36.9375L50 36.8958L45.4167 36.5L40.6667 36.0833L33.6458 35.4583L22.5208 34.4792L22.4792 34.4583L18.5625 32.5625L14.6042 30.6458L11.4167 29.1042L10.7292 28.7708L9.875 28.3542L6.91666 26.9167L2.97917 25.0208L1.75 24.4167L0 23.875L0 14.5625C0.979166 13.3958 2.02083 12.2917 3.125 11.2292C3.83333 10.5625 4.58333 9.89583 5.35417 9.27083C5.47917 9.16667 5.60417 9.0625 5.72917 8.97917C5.8125 8.875 5.91667 8.8125 6 8.77083C7.22917 7.77083 8.52083 6.875 9.85417 6.0625C11.3958 5.08333 13.0208 4.20833 14.7083 3.47917C16.5208 2.66667 18.4167 1.97917 20.375 1.45833C23.7708 0.500003 27.375 0 31.0833 0C39.5833 0 47.4375 2.58333 53.9167 7.02083C58.0625 9.85417 61.6458 13.4375 64.4792 17.5833C65.4167 18.9167 66.25 20.3333 67.0208 21.7917C67.2917 22.3333 67.5625 22.875 67.7917 23.4167C68.0417 23.9375 68.2708 24.4583 68.5 24.9792C68.9375 26.0625 69.3333 27.1458 69.6875 28.2708C70.3542 30.3542 70.8542 32.4792 71.1667 34.6875C71.2708 35.4167 71.3542 36.1458 71.4167 36.875L71.4167 36.875Z" transform="translate(12.5 41.4375)" id="Shape" fill="#FF1744" stroke="none" />
        <path d="M67.4792 36.4167C67.4792 36.5833 67.4792 36.7708 67.4583 36.9583C66.4792 37.7708 65.4375 38.5 64.3333 39.125C63.875 39.375 63.4167 39.625 62.9375 39.8333C62.4583 40.0625 61.9792 40.2708 61.4792 40.4583C60.7708 40.0833 59.8125 39.625 58.7917 39.1875C57.3542 38.5417 55.7917 37.9583 54.5833 37.7708C54.2917 37.7083 54.0208 37.6875 53.7708 37.6875L50.3542 37.25L50.3125 37.25L46.0625 36.6875L41.7708 36.125L39.7708 35.875L24.0208 33.8333C23 33.8333 21.9167 33.7708 20.7917 33.625C19.4167 33.5 17.9792 33.2917 16.5417 33C15.125 32.75 13.6875 32.4167 12.3125 32.0625C10.875 31.7292 9.45834 31.3333 8.14584 30.9583C6.625 30.5 5.20834 30.0625 4.02084 29.6667C3.04167 29.3542 2.20834 29.0625 1.56251 28.8333C1.18751 27.9375 0.875006 27 0.645839 26.0417C0.208333 24.4167 0 22.7083 0 20.9583L0 17.4792C0.666667 16.375 1.39583 15.2917 2.20833 14.2708C3.6875 12.3125 5.375 10.5208 7.20833 8.9375C7.27083 8.85417 7.35417 8.79167 7.41667 8.75L7.4375 8.72917C8.08333 8.14583 8.75 7.625 9.45833 7.125C9.54167 7.04167 9.625 6.97917 9.70833 6.91667C10.0417 6.66667 10.3958 6.41667 10.7708 6.1875C13.75 4.16667 17.0417 2.58333 20.5625 1.52083C23.8958 0.520833 27.4167 0 31.0833 0C38.3542 0 45.1458 2.14583 50.8125 5.8125C55 8.5 58.6042 12.0417 61.3542 16.1875C61.6875 16.6667 62 17.1458 62.3125 17.6458C63.75 20.0833 64.9375 22.7083 65.8125 25.4583C65.9167 25.7708 66 26.0833 66.0833 26.4167C66.25 26.9792 66.3958 27.5625 66.5208 28.1458C66.5625 28.2917 66.6042 28.4375 66.6458 28.6042C66.9375 29.9167 67.1458 31.2917 67.2917 32.6667C67.2917 32.6875 67.2917 32.6875 67.2917 32.6875C67.4167 33.9167 67.4792 35.1667 67.4792 36.4167L67.4792 36.4167Z" transform="translate(12.5 45.708008)" id="Shape" fill="#FF5722" stroke="none" />
        <path d="M62.5417 32.125C62.5417 32.8542 62.5 33.6459 62.4167 34.4375C62.375 34.8125 62.3333 35.1875 62.2917 35.5417C61.8125 35.7709 61.3333 35.9792 60.8333 36.1667C59.8958 36.5209 58.9375 36.8125 57.9583 37.0209C57.2917 37.1667 56.6042 37.2917 55.9167 37.3542L55.8958 37.3542C55.25 36.9584 54.5 36.4792 53.7292 35.9375C52.3333 34.9584 50.875 33.8542 49.7083 32.9584C49.6875 32.9375 49.6875 32.9375 49.6667 32.9167C48.4375 31.9792 47.5625 31.2708 47.5625 31.2708L45.3542 31.3542L41.1042 31.5L39.125 31.5834L31.1667 31.875L24.4375 32.125C24 32.1458 23.4792 32.1458 22.8333 32.125L22.8125 32.125C21.9375 32.1042 20.8958 32.0417 19.75 31.9375C18.4167 31.8334 16.9583 31.7083 15.4792 31.5625C14.0417 31.3958 12.5833 31.2292 11.1875 31.0625C9.64583 30.8958 8.1875 30.7083 6.9375 30.5417C5.95833 30.4167 5.10417 30.3125 4.41667 30.2292C3.83333 29.5625 3.3125 28.875 2.8125 28.125C2.0625 27 1.41667 25.8125 0.916667 24.5417C0.541667 23.6458 0.229167 22.7083 0 21.75C0.604167 19.8958 1.39583 18.1458 2.33333 16.4583C3.08333 15.0833 3.95833 13.7708 4.91667 12.5208C5.85417 11.2917 6.875 10.1458 7.97917 9.10417L7.97917 9.08334C8.29167 8.77084 8.60417 8.47917 8.91667 8.20834C9.5 7.66667 10.1042 7.16667 10.7292 6.68751L10.75 6.68751C10.7708 6.64584 10.7917 6.64584 10.8125 6.62501C11.3125 6.22917 11.8333 5.875 12.3542 5.52084C15.4375 3.41667 18.9167 1.85417 22.6667 0.937502C25.1458 0.333333 27.75 0 30.4375 0C35.7292 0 40.7292 1.27083 45.125 3.5625L45.1458 3.5625C48.9167 5.5 52.25 8.16666 54.9375 11.375C56.4167 13.0833 57.6875 14.9583 58.7291 16.9375C59.4583 18.2708 60.0833 19.6667 60.6042 21.0833C60.6458 21.2083 60.6875 21.3125 60.7292 21.4167C61.0833 22.4583 61.3958 23.5417 61.6667 24.625C61.8542 25.3958 62 26.1875 62.125 26.9792C62.1667 27.2292 62.2083 27.4583 62.2292 27.7083C62.4375 29.1459 62.5417 30.625 62.5417 32.125L62.5417 32.125Z" transform="translate(13.145813 50)" id="Shape" fill="#FF6F00" stroke="none" />
        <path d="M55.4583 27.8333L55.4583 28.0416C55.4583 28.75 55.3958 29.6458 55.3333 30.6041C55.2708 31.3125 55.2083 32.0416 55.1458 32.7291C54.4792 32.875 53.7917 33 53.1042 33.0625L53.0833 33.0625C52.2917 33.1666 51.5208 33.2083 50.7083 33.2083L47.0625 33.2083L46.2708 32.9791L42.1667 31.7291L38 30.4792L28.3542 27.5833L24.1875 26.3333C24.1875 26.3333 22.4583 27.0208 20.0208 27.8333L20 27.8333C19.0625 28.1458 18.0417 28.4792 16.9583 28.8125C15.6042 29.2083 14.1667 29.6042 12.75 29.9167C11.2917 30.25 9.85417 30.5 8.5625 30.6042C8.16667 30.6458 7.77083 30.6667 7.41667 30.6667C6.25 30.0208 5.125 29.25 4.10417 28.3958C3.20833 27.6458 2.375 26.8333 1.60417 25.9375C1.02083 25.2708 0.5 24.5833 0 23.8333C0.145834 22.8958 0.3125 21.9792 0.5625 21.0833C1.1875 18.6042 2.16667 16.2292 3.45833 14.0625C4.16667 12.8333 4.95833 11.6458 5.875 10.5417C5.89583 10.4792 5.95833 10.4167 6.02083 10.375C6 10.3542 6.02083 10.3542 6.02083 10.3542C6.29167 10 6.58333 9.66667 6.875 9.35417C6.875 9.33333 6.875 9.33333 6.875 9.33333C7.72917 8.41666 8.60417 7.54166 9.5625 6.72917C9.89583 6.45833 10.2083 6.1875 10.5625 5.91667C10.625 5.85417 10.6875 5.8125 10.7708 5.75C15.4583 2.16667 21.3125 0 27.625 0C34.7917 0 41.3125 2.6875 46.25 7.10417C48.625 9.25 50.6458 11.8125 52.1667 14.6667C52.2917 14.875 52.4167 15.1042 52.5208 15.3333C52.7083 15.7083 52.8958 16.1042 53.0625 16.5208C53.75 18.0208 54.2917 19.6042 54.6667 21.2292C54.7083 21.3958 54.75 21.5625 54.7917 21.7292C54.9583 22.5 55.1042 23.2917 55.2083 24.0833C55.375 25.3125 55.4583 26.5625 55.4583 27.8333L55.4583 27.8333Z" transform="translate(15.958252 54.291992)" id="Shape" fill="#FF9800" stroke="none" />
        <path d="M47.1042 23.5625C47.1042 23.9792 47.0833 24.4375 47.0625 24.9167C47.0208 25.6875 46.9583 26.5208 46.8542 27.375C46.8125 27.8958 46.7292 28.4167 46.6458 28.9375L35.2292 28.9375L33.0208 28.5833L24.3958 27.2083L23.1667 27.0208L20.3542 26.5625C19.125 26.5625 16.4583 27.1042 13.6458 27.625C12.1667 27.8958 10.6667 28.1875 9.3125 28.375C9.14583 28.3958 8.97917 28.4167 8.83334 28.4375L8.8125 28.4375C7.35417 28.125 5.9375 27.6458 4.60417 27.0208C4.1875 26.8333 3.77084 26.625 3.35417 26.3958C2.1875 25.75 1.0625 24.9792 0.0416676 24.125C0.0208338 23.875 0 23.6667 0 23.5625C0 23.0208 0.0208338 22.5 0.0624994 21.9792C0.145833 20.6458 0.333333 19.3542 0.625 18.1042C1.08333 16.2083 1.75 14.375 2.64583 12.6875C2.8125 12.3333 3 11.9792 3.20833 11.6458C3.29167 11.4792 3.39584 11.3333 3.47917 11.1667C3.85417 10.5625 4.27083 9.97917 4.6875 9.39584C5.5625 8.25001 6.54167 7.16667 7.58334 6.1875C7.60417 6.1875 7.60417 6.1875 7.60417 6.1875C7.6875 6.10417 7.77084 6.02084 7.85417 5.95833C7.95834 5.875 8.04167 5.77083 8.14584 5.70833C8.5625 5.33333 8.97917 5 9.41667 4.6875C9.41667 4.66667 9.4375 4.66667 9.4375 4.66667C13.375 1.72917 18.25 0 23.5625 0C27.6875 0 31.5208 1.04167 34.875 2.875L34.8958 2.875C37.7708 4.45833 40.2708 6.60416 42.25 9.1875C43.0208 10.1875 43.7083 11.25 44.2917 12.375L44.3125 12.375C44.4167 12.5833 44.5208 12.7917 44.625 13C45.25 14.2292 45.75 15.5208 46.125 16.8542L46.1458 16.8542C46.1667 16.9583 46.2083 17.0625 46.2292 17.1667C46.4792 18.0625 46.6875 18.9792 46.8333 19.9167C46.8542 20.1042 46.875 20.3125 46.8958 20.5C47.0416 21.5 47.1042 22.5208 47.1042 23.5625L47.1042 23.5625Z" transform="translate(20.020813 58.5625)" id="Shape" fill="#FFC107" stroke="none" />
        <path d="M38.5417 19.0417C38.5417 19.375 38.5417 19.7292 38.5 20.0625L38.5 20.0833C38.5 20.1042 38.5 20.1042 38.5 20.1042C38.4583 21.6042 38.25 23.0833 37.9167 24.4167C37.9167 24.5 37.8958 24.5625 37.8542 24.6458L28.125 24.6458L20.1042 22.9167L19.0417 22.6875L18.875 22.7292L9.97916 24.5625L9.58334 24.6458L9.02083 24.6458C7.6875 24.6458 6.375 24.5208 5.10417 24.2708C4.91667 24.2292 4.72917 24.1875 4.54167 24.1458L4.52083 24.1458C3.0625 23.8333 1.64583 23.3542 0.312501 22.7292C0.270834 22.5 0.229168 22.2708 0.208334 22.0417C0.0625014 21.1458 0 20.2083 0 19.2708C0 18.9167 0 18.5625 0.0208338 18.2083C0.0833332 17.0833 0.25 15.9792 0.5 14.9167C0.666666 14.125 0.895832 13.3542 1.16667 12.625C1.39583 11.9792 1.66667 11.3542 1.95833 10.75C2.20833 10.2292 2.5 9.72915 2.79166 9.22916C3.08333 8.74999 3.39583 8.29166 3.72916 7.83333C4.5625 6.6875 5.54166 5.62499 6.625 4.6875C7.25 4.14584 7.9375 3.625 8.64583 3.16667C11.6875 1.16667 15.3333 0 19.2708 0C20.0417 0 20.7917 0.0416676 21.5208 0.145833L21.5625 0.145833C23.7917 0.395834 25.875 1.02083 27.7917 1.95833C27.8125 1.95833 27.8125 1.95833 27.8125 1.95833C30.8333 3.4375 33.3958 5.66667 35.2708 8.41667C35.5833 8.875 35.8958 9.375 36.1667 9.875C36.3958 10.2708 36.6042 10.6875 36.7917 11.1042C37.0833 11.75 37.3542 12.4375 37.5833 13.125L37.6042 13.125C37.8333 13.8958 38.0417 14.6667 38.1875 15.4792L38.1875 15.5C38.4167 16.6458 38.5417 17.8333 38.5417 19.0417L38.5417 19.0417Z" transform="translate(24.312439 62.854492)" id="Shape" fill="#FFD54F" stroke="none" />
        <path d="M29.9792 15L29.9792 15.0625C29.9792 16.2917 29.8333 17.5 29.5417 18.6875C29.4375 19.1875 29.2917 19.6875 29.1042 20.1667L19.7708 20.1667L15 18.8542L10.2292 20.1667L4.75 20.1667C3.41667 20.1667 2.10417 20.0417 0.833335 19.7917C0.791667 19.7292 0.770835 19.6667 0.750001 19.6042C0.458334 18.7083 0.229168 17.8125 0.125001 16.875C0.0416676 16.2708 0 15.6458 0 15C0 14.75 0 14.4792 0.0416676 14.2292C0.0625014 13.25 0.208334 12.2917 0.458334 11.375C0.583335 10.75 0.770833 10.1458 1.02083 9.56251C1.10417 9.27084 1.22917 9.00001 1.375 8.72917C1.6875 8.02084 2.0625 7.33334 2.47917 6.66667C2.9375 6 3.4375 5.375 4 4.79166C4.66667 4.04166 5.41667 3.35417 6.27083 2.79167C7.72917 1.72917 9.39583 0.937501 11.2083 0.500003C12.4167 0.16667 13.6875 0 15 0C19.1667 0 22.8958 1.66666 25.6042 4.35417C25.7083 4.45833 25.8333 4.58333 25.9375 4.72917L25.9583 4.72917C26.25 5.04167 26.5208 5.35417 26.7917 5.70834C27.5625 6.6875 28.2083 7.75 28.7083 8.91667C28.9583 9.45833 29.1667 10.0208 29.3333 10.6042C29.3542 10.6875 29.375 10.75 29.3958 10.8333C29.6875 11.8542 29.875 12.9167 29.9167 14.0208C29.9583 14.3333 29.9792 14.6667 29.9792 15L29.9792 15Z" transform="translate(28.583252 67.33301)" id="Shape" fill="#FFE082" stroke="none" />
        <path d="M21.4167 10.7083C21.4167 11.5625 21.3125 12.375 21.0833 13.1458C20.875 13.9792 20.5625 14.7708 20.1667 15.5208C20.1042 15.6458 19.9583 15.875 19.9583 15.875L1.45833 15.875C1.4375 15.8542 1.41667 15.8125 1.41667 15.7917C1.16666 15.3958 0.958333 15 0.791667 14.5625C0.375001 13.6042 0.125001 12.5625 0.0416676 11.4792C0 11.2292 0 10.9583 0 10.7083C0 10.5833 0 10.4375 0.0208338 10.3125C0.0416676 9.39583 0.166666 8.52083 0.416666 7.70833C0.625 6.95833 0.895832 6.27083 1.25 5.60416C1.25 5.60416 1.27083 5.58333 1.27083 5.5625C1.52083 5.125 1.79167 4.6875 2.10417 4.27083C3.125 2.89583 4.47916 1.77083 6.04166 1.04167C6.0625 1.04167 6.0625 1.04167 6.0625 1.04167C6.5625 0.791669 7.08333 0.583331 7.625 0.437498C7.625 0.437498 7.625 0.437498 7.64583 0.437498C8.60416 0.145833 9.64583 0 10.7083 0C11.9375 0 13.125 0.1875 14.2083 0.583331C14.6042 0.687496 14.9792 0.854166 15.3542 1.04167C15.3542 1.04167 15.3542 1.04167 15.375 1.04167C17.1667 1.89583 18.6875 3.22917 19.7292 4.89583C19.9375 5.20833 20.125 5.54167 20.2917 5.89583C20.375 6.04166 20.4583 6.20833 20.5208 6.35417C21 7.4375 21.2917 8.625 21.375 9.875C21.3958 9.97916 21.3958 10.0833 21.3958 10.2083C21.4167 10.375 21.4167 10.5417 21.4167 10.7083L21.4167 10.7083Z" transform="translate(32.87506 71.625)" id="Shape" fill="#FFECB3" stroke="none" />
        <g id="Group" transform="translate(22.916687 22.916504)">
          <path d="M39.5833 0L14.5833 0C6.45833 0 0 6.45833 0 14.5833L0 39.5833C0 47.7083 6.45833 54.1667 14.5833 54.1667L39.5833 54.1667C47.7083 54.1667 54.1667 47.7083 54.1667 39.5833L54.1667 14.5833C54.1667 6.45833 47.7083 0 39.5833 0L39.5833 0Z" id="Shape" fill="none" stroke="#FFFFFF" stroke-width="2" stroke-linecap="round" stroke-linejoin="round" />
          <path d="M0 2.08333C0 0.93274 0.93274 0 2.08333 0C3.23393 0 4.16667 0.93274 4.16667 2.08333C4.16667 3.23393 3.23393 4.16667 2.08333 4.16667C0.93274 4.16667 0 3.23393 0 2.08333Z" transform="translate(39.583313 8.333496)" id="Circle" fill="#FFFFFF" stroke="none" />
        </g>
        <g id="Group" transform="translate(37.5 37.5)">
          <path d="M0 12.5C0 5.59644 5.59644 0 12.5 0C19.4036 0 25 5.59644 25 12.5C25 19.4036 19.4036 25 12.5 25C5.59644 25 0 19.4036 0 12.5Z" id="Circle" fill="none" stroke="#FFFFFF" stroke-width="2" stroke-linecap="round" stroke-linejoin="round" />
        </g>
      </g>
    </g>
    <path d="M1 0L1 103" transform="translate(100 0)" id="Line" fill="none" stroke="#C049A9" stroke-width="4" />
    <g id="Instagram_logo" transform="translate(108.99994 4)">
      <path d="M0 0L252 0L252 90L0 90L0 0Z" id="Background" fill="none" stroke="none" />
      <g clip-path="url(#mask_2)">
        <path d="M12.2286 0.23633C7.36549 2.27195 2.01934 8.02283 0.330849 15.2414C-1.80749 24.3877 7.09114 28.2553 7.82101 26.9872C8.68006 25.4971 6.22648 24.9932 5.72143 20.2477C5.06869 14.1185 7.91815 7.26977 11.5043 4.26476C12.1709 3.70646 12.1392 4.48352 12.1392 5.92085C12.1392 8.49113 11.9972 31.5647 11.9972 36.3802C11.9972 42.8961 11.728 44.9537 11.2447 46.9869C10.7549 49.0474 9.96757 50.4396 10.5642 50.9758C11.2308 51.5757 14.0768 50.1488 15.7244 47.8493C17.7001 45.0914 18.3917 41.7793 18.5158 38.1823C18.6658 33.8464 18.6594 26.9661 18.6658 23.0417C18.6718 19.4424 18.7264 8.90279 18.6027 2.56679C18.5724 1.0127 14.2623 -0.617772 12.2283 0.234439M184.917 30.7305C184.76 34.118 184.01 36.7658 183.079 38.6334C181.278 42.249 177.539 43.3717 175.952 38.1741C175.087 35.3409 175.046 30.6092 175.668 26.6556C176.301 22.6279 178.069 19.5861 180.996 19.8605C183.883 20.1316 185.234 23.8517 184.917 30.7304L184.917 30.7305ZM136.246 51.7474C136.207 57.3759 135.321 62.311 133.421 63.7443C130.727 65.7767 127.106 64.2522 127.856 60.145C128.519 56.5105 131.657 52.7988 136.253 48.2637C136.253 48.2637 136.263 49.2979 136.246 51.7474L136.246 51.7474ZM135.51 30.6978C135.345 33.7831 134.545 36.8826 133.673 38.6339C131.872 42.2495 128.106 43.3798 126.545 38.1746C125.478 34.6182 125.734 30.0154 126.262 27.1151C126.947 23.3522 128.607 19.8613 131.59 19.8613C134.489 19.8613 135.919 23.0423 135.51 30.698L135.51 30.6978ZM107.315 30.6506C107.138 33.9182 106.501 36.6498 105.478 38.6338C103.627 42.2245 99.9653 43.3633 98.3504 38.1746C97.1862 34.4331 97.5825 29.3315 98.0668 26.5756C98.7855 22.486 100.585 19.5865 103.395 19.8613C106.28 20.1432 107.683 23.8521 107.315 30.6508L107.315 30.6506ZM236.526 34.4672C235.821 34.4672 235.499 35.1944 235.232 36.4184C234.309 40.6744 233.338 41.6354 232.085 41.6354C230.687 41.6354 229.43 39.528 229.106 35.3094C228.852 31.9923 228.893 25.8853 229.218 19.8104C229.284 18.5623 228.94 17.3273 225.592 16.1111C224.152 15.588 222.058 14.8178 221.015 17.3345C218.069 24.4447 216.917 30.0896 216.646 32.3828C216.632 32.5015 216.486 32.5257 216.46 32.2484C216.288 30.4118 215.901 27.0742 215.853 20.062C215.844 18.6938 215.554 17.5293 214.044 16.5758C213.064 15.9572 210.089 14.863 209.018 16.1647C208.089 17.2293 207.014 20.0944 205.897 23.4905C204.99 26.2508 204.357 28.118 204.357 28.118C204.357 28.118 204.369 20.6703 204.38 17.8452C204.385 16.7794 203.654 16.4243 203.433 16.3599C202.441 16.0719 200.486 15.5909 199.657 15.5909C198.633 15.5909 198.382 16.1631 198.382 16.997C198.382 17.1062 198.22 26.8027 198.22 33.583C198.22 33.8775 198.22 34.1988 198.223 34.5401C197.657 37.6564 195.821 41.8867 193.823 41.8867C191.824 41.8867 190.88 40.1182 190.88 32.035C190.88 27.3195 191.022 25.2691 191.092 21.8586C191.132 19.8942 191.21 18.3857 191.206 18.0433C191.191 16.9935 189.376 16.4644 188.531 16.2689C187.682 16.0717 186.945 15.9953 186.369 16.0281C185.554 16.0741 184.977 16.6088 184.977 17.3443C184.977 17.7386 184.982 18.4884 184.982 18.4884C183.932 16.8388 182.243 15.6906 181.12 15.3579C178.094 14.4592 174.937 15.2555 172.555 18.588C170.662 21.2359 169.521 24.2349 169.072 28.5437C168.744 31.6937 168.851 34.8881 169.435 37.5896C168.73 40.6379 167.421 41.8867 165.987 41.8867C163.907 41.8867 162.398 38.4904 162.573 32.6165C162.689 28.7531 163.462 26.0418 164.307 22.1193C164.667 20.4473 164.374 19.5718 163.64 18.7328C162.967 17.9633 161.532 17.5702 159.469 18.0537C158 18.3985 155.899 18.7692 153.977 19.0539C153.977 19.0539 154.093 18.5912 154.188 17.7754C154.688 13.497 150.039 13.8441 148.556 15.2107C147.67 16.0265 147.067 16.9887 146.839 18.7188C146.476 21.4643 148.715 22.7592 148.715 22.7592C147.98 26.1222 146.18 30.5153 144.32 33.6915C143.325 35.3932 142.563 36.6542 141.579 37.9947C141.576 37.4955 141.573 36.9965 141.571 36.4997C141.549 29.4294 141.643 23.8649 141.684 21.8593C141.725 19.8949 141.803 18.4263 141.799 18.084C141.788 17.3162 141.34 17.0262 140.407 16.6591C139.582 16.3343 138.607 16.1096 137.596 16.0312C136.319 15.9316 135.55 16.6087 135.57 17.4093C135.574 17.5605 135.574 18.4887 135.574 18.4887C134.524 16.839 132.836 15.6909 131.713 15.3581C128.687 14.4599 125.529 15.2561 123.148 18.5883C121.255 21.2362 120.016 24.9519 119.665 28.5112C119.338 31.8285 119.398 34.6476 119.844 37.0224C119.363 39.4003 117.98 41.887 116.415 41.887C114.416 41.887 113.278 40.1184 113.278 32.0353C113.278 27.3198 113.42 25.2694 113.489 21.8593C113.53 19.8949 113.608 18.386 113.603 18.044C113.588 16.9942 111.773 16.4651 110.929 16.2692C110.045 16.0648 109.282 15.9896 108.696 16.0328C107.923 16.0904 107.379 16.7827 107.379 17.299L107.379 18.4887C106.329 16.839 104.641 15.6909 103.518 15.3581C100.492 14.4599 97.3519 15.269 94.9528 18.5883C93.3883 20.7527 92.1217 23.1522 91.4699 28.464C91.2815 29.999 91.1983 31.4364 91.2091 32.78C90.5852 36.5954 87.8297 40.9928 85.5758 40.9928C84.2568 40.9928 83.0007 38.4345 83.0007 32.9823C83.0007 25.7197 83.4502 15.3793 83.5262 14.3827C83.5262 14.3827 86.374 14.3343 86.9255 14.3279C88.346 14.3123 89.6326 14.3459 91.5246 14.2491C92.4736 14.2007 93.3879 10.795 92.4085 10.3735C91.9645 10.1827 88.8271 10.0156 87.5834 9.98917C86.5376 9.96547 83.6262 9.75001 83.6262 9.75001C83.6262 9.75001 83.8873 2.88652 83.9481 2.16148C83.9997 1.55719 83.2178 1.24606 82.7695 1.05727C81.6794 0.59617 80.7039 0.375399 79.5478 0.137049C77.9504 -0.192471 77.2258 0.129849 77.0842 1.47799C76.8711 3.52402 76.7607 9.51685 76.7607 9.51685C75.5885 9.51685 71.5845 9.28771 70.4119 9.28771C69.3225 9.28771 68.1467 13.9728 69.6529 14.0304C71.3857 14.0976 74.4055 14.1556 76.4075 14.216C76.4075 14.216 76.3184 24.7267 76.3184 27.9717C76.3184 28.3169 76.3214 28.6494 76.322 28.972C75.2202 34.7149 71.3393 37.8171 71.3393 37.8171C72.1728 34.0178 70.4703 31.1648 67.4037 28.7496C66.2739 27.8597 64.0435 26.1748 61.548 24.3285C61.548 24.3285 62.9933 22.904 64.2751 20.0381C65.1833 18.0081 65.2225 15.6849 62.9933 15.1727C59.31 14.3256 56.273 17.0307 55.3672 19.9185C54.6653 22.1557 55.0397 23.8158 56.4146 25.5402C56.515 25.6662 56.6238 25.795 56.7361 25.9246C55.9047 27.5271 54.7625 29.6847 53.7951 31.3579C51.11 36.0034 49.0816 39.6779 47.5487 39.6779C46.3233 39.6779 46.3397 35.9474 46.3397 32.4545C46.3397 29.4434 46.5621 24.9164 46.7397 20.2293C46.7984 18.6792 46.0234 17.7961 44.724 16.9963C43.9346 16.5104 42.2497 15.555 41.2739 15.555C39.8133 15.555 35.5994 15.7537 31.6178 27.2711C31.116 28.7228 30.1302 31.3679 30.1302 31.3679L30.215 17.5178C30.215 17.1931 30.0421 16.8791 29.6461 16.6643C28.9751 16.3 27.1831 15.555 25.5897 15.555C24.8305 15.555 24.4516 15.9081 24.4516 16.612L24.3126 38.2806C24.3126 39.927 24.3555 41.8477 24.5183 42.6878C24.6805 43.5289 24.9432 44.2131 25.2686 44.6202C25.5936 45.0265 25.9694 45.3365 26.5892 45.4644C27.1659 45.5831 30.3242 45.9887 30.4884 44.7818C30.6851 43.3353 30.6926 41.7708 32.351 35.9358C34.9329 26.8516 38.2991 22.4192 39.8816 20.8451C40.1583 20.57 40.4742 20.5536 40.459 21.0039C40.3914 22.9955 40.1539 27.9722 39.9939 32.2002C39.5653 43.5148 41.6236 45.612 44.5651 45.612C46.8154 45.612 49.9876 43.376 53.3882 37.7159C55.5082 34.1886 57.5666 30.7301 59.0455 28.2373C60.0761 29.1914 61.2327 30.2182 62.3884 31.3152C65.0743 33.8644 65.9561 36.2866 65.3711 38.5846C64.9235 40.3413 63.2383 42.1517 60.2388 40.392C59.3646 39.8787 58.9915 39.4821 58.1124 38.9033C57.6401 38.5924 56.9191 38.4994 56.4868 38.8251C55.3638 39.6719 54.7215 40.7488 54.3548 42.0822C53.9981 43.3796 55.2974 44.0654 56.6443 44.6653C57.8041 45.1816 60.2968 45.6494 61.8865 45.7027C68.0805 45.9099 73.0424 42.7121 76.4965 34.4633C77.1148 41.5871 79.7463 45.6183 84.3182 45.6183C87.3748 45.6183 90.4394 41.6674 91.7796 37.7807C92.1643 39.365 92.7338 40.7428 93.4692 41.9079C96.9922 47.4896 103.826 46.2882 107.259 41.5484C108.321 40.0839 108.482 39.5576 108.482 39.5576C108.983 44.0331 112.587 45.5968 114.651 45.5968C116.962 45.5968 119.348 44.5042 121.021 40.7389C121.217 41.1476 121.431 41.5378 121.664 41.9077C125.187 47.4895 132.021 46.2881 135.454 41.5483C135.616 41.326 135.757 41.1243 135.88 40.9433L135.98 43.883C135.98 43.883 134.022 45.6795 132.82 46.7816C127.529 51.6359 123.505 55.3188 123.21 59.6076C122.83 65.0761 127.265 67.1085 130.62 67.3749C134.183 67.6577 137.235 65.6893 139.11 62.9345C140.76 60.5098 141.84 55.2912 141.761 50.137C141.729 48.073 141.677 45.4487 141.636 42.6356C143.496 40.4761 145.591 37.7466 147.52 34.5516C149.623 31.0698 151.876 26.394 153.03 22.7551C153.03 22.7551 154.987 22.7719 157.077 22.6351C157.745 22.5915 157.937 22.7278 157.813 23.2178C157.664 23.8096 155.174 33.415 157.447 39.8138C159.002 44.1941 162.509 45.6035 164.588 45.6035C167.022 45.6035 169.351 43.7654 170.598 41.0359C170.749 41.3402 170.906 41.6347 171.078 41.9065C174.6 47.4883 181.411 46.2797 184.868 41.5471C185.648 40.4793 186.091 39.5562 186.091 39.5562C186.833 44.1881 190.435 45.619 192.498 45.619C194.647 45.619 196.687 44.738 198.341 40.8224C198.411 42.5464 198.519 43.9561 198.691 44.4006C198.796 44.6724 199.407 45.0136 199.851 45.1784C201.817 45.9075 203.822 45.5627 204.564 45.4127C205.078 45.3087 205.479 44.8964 205.534 43.8318C205.678 41.0364 205.589 36.3396 206.437 32.8491C207.859 26.991 209.186 24.7187 209.816 23.5937C210.168 22.9634 210.566 22.8594 210.58 23.5265C210.61 24.8762 210.677 28.8399 211.228 34.1653C211.632 38.0819 212.173 40.3969 212.589 41.1295C213.774 43.2247 215.239 43.3239 216.432 43.3239C217.19 43.3239 218.777 43.1143 218.635 41.781C218.566 41.1311 218.687 37.1146 220.089 31.3434C221.005 27.5745 222.532 24.1691 223.083 22.9242C223.286 22.4651 223.38 22.827 223.377 22.8975C223.261 25.493 223.001 33.9826 224.058 38.6257C225.491 44.9157 229.638 45.6195 231.083 45.6195C234.167 45.6195 236.69 43.2731 237.54 37.0992C237.745 35.6134 237.442 34.4661 236.533 34.4661" transform="translate(7.1994934 14.496582)" id="Shape" fill="#C049A9" stroke="none" />
      </g>
    </g>
  </g>
</svg>